<?xml version="1.0" encoding="UTF-8" standalone="no"?>
<svg
   xmlns:dc="http://purl.org/dc/elements/1.1/"
   xmlns:cc="http://creativecommons.org/ns#"
   xmlns:rdf="http://www.w3.org/1999/02/22-rdf-syntax-ns#"
   xmlns:svg="http://www.w3.org/2000/svg"
   xmlns="http://www.w3.org/2000/svg"
   xmlns:sodipodi="http://sodipodi.sourceforge.net/DTD/sodipodi-0.dtd"
   xmlns:inkscape="http://www.inkscape.org/namespaces/inkscape"
   version="1.1"
   id="svg2"
   xml:space="preserve"
   width="140.93333"
   height="100.42667"
   viewBox="0 0 140.93333 100.42667"
   sodipodi:docname="jan_2022020100018.eps"><metadata
     id="metadata8"><rdf:RDF><cc:Work
         rdf:about=""><dc:format>image/svg+xml</dc:format><dc:type
           rdf:resource="http://purl.org/dc/dcmitype/StillImage" /></cc:Work></rdf:RDF></metadata><defs
     id="defs6" /><sodipodi:namedview
     pagecolor="#ffffff"
     bordercolor="#666666"
     borderopacity="1"
     objecttolerance="10"
     gridtolerance="10"
     guidetolerance="10"
     inkscape:pageopacity="0"
     inkscape:pageshadow="2"
     inkscape:window-width="640"
     inkscape:window-height="480"
     id="namedview4" /><g
     id="g10"
     inkscape:groupmode="layer"
     inkscape:label="ink_ext_XXXXXX"
     transform="matrix(1.3333333,0,0,-1.3333333,0,100.42667)"><g
       id="g12"
       transform="scale(0.1)"><path
         d="M 0,0 H 1057.03 V 753.16 H 0 Z"
         style="fill:#ffffff;fill-opacity:1;fill-rule:evenodd;stroke:none"
         id="path14" /><path
         d="m 102.852,743.809 h 9.34766 V 49.039 H 102.852 Z m 18.699,0 h 9.34766 V 49.039 H 121.551 Z m 37.398,0 h 18.6992 v -648 H 158.949 Z m 28.051,0 h 9.35156 v -648 H 187 Z m 28.051,0 h 9.34766 v -648 H 215.051 Z m 28.051,0 h 18.6992 v -648 H 243.102 Z m 37.398,0 h 18.6992 v -648 H 280.5 Z m 28.051,0 h 18.6992 v -648 H 308.551 Z m 28.051,0 h 9.34766 v -648 H 336.602 Z m 28.046,0 h 28.0508 v -648 H 364.648 Z m 46.75,0 h 9.35156 v -648 H 411.398 Z m 28.051,0 h 18.6992 v -648 H 439.449 Z m 28.051,0 h 9.35156 v -648 H 467.5 Z m 28.051,0 h 28.0508 v -648 H 495.551 Z m 37.398,0 h 9.35156 V 49.039 H 532.949 Z m 18.699,0 h 9.35156 V 49.039 H 551.648 Z m 18.704,0 h 18.6992 v -648 H 570.352 Z m 37.398,0 h 18.6992 v -648 H 607.75 Z m 28.051,0 h 28.0508 v -648 H 635.801 Z m 46.75,0 h 9.34766 v -648 H 682.551 Z m 18.699,0 h 28.0508 v -648 H 701.25 Z m 46.75,0 h 9.35156 v -648 H 748 Z m 18.699,0 h 28.0508 v -648 H 766.699 Z m 46.75,0 h 9.35156 v -648 H 813.449 Z m 18.699,0 h 18.7031 v -648 H 832.148 Z m 37.403,0 h 18.6992 v -648 H 869.551 Z m 28.051,0 h 9.34766 v -648 H 897.602 Z m 28.046,0 h 9.35156 v -648 H 925.648 Z m 37.403,0 h 9.34766 V 49.039 H 963.051 Z m 18.699,0 h 9.35156 V 49.039 H 981.75 Z M 4.67188,74.5898 c 4.10546,2.8633 7.83982,4.961 11.19532,6.2969 3.3594,1.336 7.5,2.0078 12.418,2.0078 6.0312,0 11.0273,-1.8359 14.9804,-5.5078 3.9492,-3.6679 5.9258,-8.4648 5.9258,-14.3711 0,-2.3672 -0.4375,-4.6367 -1.3086,-6.8164 -0.8711,-2.1797 -1.789,-3.9648 -2.75,-5.3633 -0.9687,-1.4023 -2.4922,-2.9765 -4.5781,-4.7148 -2.0859,-1.7422 -3.6406,-2.957 -4.6641,-3.6406 -1.0273,-0.6875 -2.7226,-1.7735 -5.0898,-3.2657 -2.3633,-1.4921 -4.1211,-2.664 -5.2735,-3.5 -1.1484,-0.8437 -2.5312,-2.0546 -4.1523,-3.6406 -1.6172,-1.5898 -2.7656,-3.3476 -3.4492,-5.2734 -0.6914,-1.9297 -1.0313,-4.1406 -1.0313,-6.625 H 49.75 v -9.336 H 7.5625 c -0.375,2.5508 -0.55859,4.9141 -0.55859,7.0938 0,3.543 0.48437,6.8125 1.44531,9.8008 0.96484,2.9844 2.37888,5.6484 4.24608,7.9804 1.8672,2.3321 3.8086,4.3516 5.836,6.0665 2.0195,1.707 4.4296,3.4687 7.2343,5.2734 0.3047,0.1875 1.1016,0.668 2.3789,1.4453 1.2735,0.7773 2.1914,1.3672 2.75,1.7734 0.5586,0.4024 1.418,1.0079 2.5703,1.8204 1.1485,0.8085 2.0079,1.5546 2.5665,2.2382 0.5585,0.6836 1.1953,1.4961 1.914,2.4297 0.7149,0.9336 1.2149,1.9297 1.4922,2.9844 0.2813,1.0586 0.418,2.1484 0.418,3.2695 0,3.168 -1.1016,5.7227 -3.3125,7.6524 -2.2071,1.9297 -4.9649,2.8906 -8.2578,2.8906 -2.6797,0 -5.1836,-0.3398 -7.5157,-1.0234 -2.332,-0.6836 -4.1211,-1.4024 -5.3672,-2.1446 -1.2421,-0.75 -3.0195,-1.9023 -5.3164,-3.457 z M 140.723,42.7578 v 3.9219 c 0,8.4609 0.562,14.9336 1.679,19.4141 2.739,11.1992 9.961,16.8007 21.657,16.8007 2.988,0 5.675,-0.3867 8.07,-1.1679 2.398,-0.7774 4.406,-1.8047 6.023,-3.0782 1.618,-1.2773 3,-2.9414 4.153,-4.9961 1.152,-2.0507 2.054,-4.121 2.707,-6.207 0.652,-2.082 1.168,-4.6172 1.539,-7.6055 0.375,-2.9843 0.605,-5.7226 0.699,-8.2109 0.094,-2.4922 0.141,-5.4492 0.141,-8.8711 0,-5.5351 -0.481,-10.4844 -1.446,-14.8359 -0.965,-4.3594 -2.769,-8.2461 -5.414,-11.668 -2.644,-3.4219 -6.051,-5.5391 -10.222,-6.35156 -1.368,-0.24609 -3.45,-0.37109 -6.25,-0.37109 -4.481,0 -8.309,0.85545 -11.485,2.57035 -3.168,1.707 -5.582,4.1523 -7.23,7.3242 -1.653,3.1758 -2.828,6.6406 -3.547,10.4101 -0.715,3.7618 -1.074,8.0704 -1.074,12.9219 z m 9.336,0 c 0,-14.4336 3.171,-22.3359 9.519,-23.707 0.625,-0.125 1.524,-0.1836 2.703,-0.1836 h 1.778 c 3.359,0 5.91,0.5742 7.652,1.7266 1.742,1.1484 3.109,3.0937 4.105,5.832 1.497,3.9805 2.239,9.4297 2.239,16.332 v 4.5781 c 0,2.6719 -0.047,4.9414 -0.137,6.8086 -0.094,1.8672 -0.309,4.0313 -0.652,6.4922 -0.34,2.4571 -0.84,4.4766 -1.496,6.0664 -0.653,1.586 -1.602,3.0157 -2.844,4.293 -1.242,1.2734 -2.738,2.0664 -4.481,2.3789 -0.562,0.125 -1.433,0.1836 -2.613,0.1836 h -1.773 -1.778 l -2.703,-0.1836 c -2.113,-0.375 -3.859,-1.3711 -5.226,-2.9844 -1.372,-1.6211 -2.348,-3.8008 -2.942,-6.539 -0.59,-2.7344 -0.961,-5.2539 -1.121,-7.5586 -0.152,-2.3008 -0.23,-5.1328 -0.23,-8.4922 z m 55.836,31.832 c 4.105,2.8633 7.839,4.961 11.199,6.2969 3.359,1.336 7.5,2.0078 12.418,2.0078 6.031,0 11.027,-1.8359 14.976,-5.5078 3.953,-3.6679 5.926,-8.4648 5.926,-14.3711 0,-2.3672 -0.434,-4.6367 -1.305,-6.8164 -0.875,-2.1797 -1.793,-3.9648 -2.754,-5.3633 -0.964,-1.4023 -2.488,-2.9765 -4.574,-4.7148 -2.086,-1.7422 -3.64,-2.957 -4.668,-3.6406 -1.023,-0.6875 -2.718,-1.7735 -5.086,-3.2657 -2.363,-1.4921 -4.125,-2.664 -5.273,-3.5 -1.149,-0.8437 -2.535,-2.0546 -4.152,-3.6406 -1.622,-1.5898 -2.77,-3.3476 -3.454,-5.2734 -0.687,-1.9297 -1.027,-4.1406 -1.027,-6.625 h 32.856 v -9.336 h -42.188 c -0.375,2.5508 -0.559,4.9141 -0.559,7.0938 0,3.543 0.481,6.8125 1.442,9.8008 0.965,2.9844 2.379,5.6484 4.246,7.9804 1.867,2.3321 3.812,4.3516 5.84,6.0665 2.019,1.707 4.43,3.4687 7.23,5.2734 0.309,0.1875 1.102,0.668 2.379,1.4453 1.274,0.7773 2.196,1.3672 2.754,1.7734 0.559,0.4024 1.418,1.0079 2.567,1.8204 1.148,0.8085 2.007,1.5546 2.57,2.2382 0.558,0.6836 1.195,1.4961 1.91,2.4297 0.715,0.9336 1.215,1.9297 1.492,2.9844 0.281,1.0586 0.418,2.1484 0.418,3.2695 0,3.168 -1.101,5.7227 -3.308,7.6524 -2.211,1.9297 -4.965,2.8906 -8.258,2.8906 -2.68,0 -5.184,-0.3398 -7.516,-1.0234 -2.336,-0.6836 -4.125,-1.4024 -5.367,-2.1446 -1.242,-0.75 -3.02,-1.9023 -5.32,-3.457 z m 65.453,0 c 4.105,2.8633 7.84,4.961 11.195,6.2969 3.359,1.336 7.5,2.0078 12.418,2.0078 6.031,0 11.027,-1.8359 14.977,-5.5078 3.953,-3.6679 5.925,-8.4648 5.925,-14.3711 0,-2.3672 -0.433,-4.6367 -1.304,-6.8164 -0.871,-2.1797 -1.793,-3.9648 -2.754,-5.3633 -0.965,-1.4023 -2.489,-2.9765 -4.575,-4.7148 -2.085,-1.7422 -3.64,-2.957 -4.664,-3.6406 -1.027,-0.6875 -2.722,-1.7735 -5.089,-3.2657 -2.364,-1.4921 -4.125,-2.664 -5.274,-3.5 -1.148,-0.8437 -2.531,-2.0546 -4.152,-3.6406 -1.617,-1.5898 -2.77,-3.3476 -3.453,-5.2734 -0.688,-1.9297 -1.028,-4.1406 -1.028,-6.625 h 32.856 v -9.336 h -42.188 c -0.375,2.5508 -0.558,4.9141 -0.558,7.0938 0,3.543 0.48,6.8125 1.441,9.8008 0.969,2.9844 2.383,5.6484 4.25,7.9804 1.867,2.3321 3.809,4.3516 5.836,6.0665 2.02,1.707 4.43,3.4687 7.231,5.2734 0.308,0.1875 1.105,0.668 2.382,1.4453 1.274,0.7773 2.192,1.3672 2.75,1.7734 0.559,0.4024 1.418,1.0079 2.567,1.8204 1.152,0.8085 2.008,1.5546 2.57,2.2382 0.559,0.6836 1.195,1.4961 1.914,2.4297 0.711,0.9336 1.211,1.9297 1.488,2.9844 0.286,1.0586 0.422,2.1484 0.422,3.2695 0,3.168 -1.105,5.7227 -3.312,7.6524 -2.211,1.9297 -4.965,2.8906 -8.258,2.8906 -2.68,0 -5.184,-0.3398 -7.516,-1.0234 -2.332,-0.6836 -4.125,-1.4024 -5.367,-2.1446 -1.242,-0.75 -3.019,-1.9023 -5.32,-3.457 z m 65.726,-31.832 v 3.9219 c 0,8.4609 0.559,14.9336 1.68,19.4141 2.738,11.1992 9.957,16.8007 21.656,16.8007 2.985,0 5.672,-0.3867 8.07,-1.1679 2.399,-0.7774 4.407,-1.8047 6.02,-3.0782 1.621,-1.2773 3.004,-2.9414 4.152,-4.9961 1.157,-2.0507 2.055,-4.121 2.711,-6.207 0.653,-2.082 1.164,-4.6172 1.535,-7.6055 0.379,-2.9843 0.61,-5.7226 0.704,-8.2109 0.093,-2.4922 0.14,-5.4492 0.14,-8.8711 0,-5.5351 -0.484,-10.4844 -1.449,-14.8359 -0.961,-4.3594 -2.77,-8.2461 -5.414,-11.668 -2.645,-3.4219 -6.047,-5.5391 -10.219,-6.35156 -1.367,-0.24609 -3.453,-0.37109 -6.25,-0.37109 -4.48,0 -8.308,0.85545 -11.484,2.57035 -3.172,1.707 -5.586,4.1523 -7.235,7.3242 -1.648,3.1758 -2.828,6.6406 -3.546,10.4101 -0.711,3.7618 -1.071,8.0704 -1.071,12.9219 z m 9.336,0 c 0,-14.4336 3.168,-22.3359 9.52,-23.707 0.621,-0.125 1.523,-0.1836 2.703,-0.1836 h 1.777 c 3.36,0 5.91,0.5742 7.653,1.7266 1.742,1.1484 3.109,3.0937 4.105,5.832 1.496,3.9805 2.238,9.4297 2.238,16.332 v 4.5781 c 0,2.6719 -0.047,4.9414 -0.136,6.8086 -0.094,1.8672 -0.313,4.0313 -0.653,6.4922 -0.344,2.4571 -0.844,4.4766 -1.496,6.0664 -0.652,1.586 -1.601,3.0157 -2.848,4.293 -1.242,1.2734 -2.738,2.0664 -4.48,2.3789 -0.559,0.125 -1.43,0.1836 -2.609,0.1836 h -1.774 -1.777 L 355.93,73.375 c -2.117,-0.375 -3.86,-1.3711 -5.227,-2.9844 -1.371,-1.6211 -2.351,-3.8008 -2.945,-6.539 -0.59,-2.7344 -0.961,-5.2539 -1.117,-7.5586 -0.157,-2.3008 -0.231,-5.1328 -0.231,-8.4922 z m 55.836,31.832 c 4.106,2.8633 7.84,4.961 11.199,6.2969 3.356,1.336 7.496,2.0078 12.414,2.0078 6.036,0 11.028,-1.8359 14.981,-5.5078 3.953,-3.6679 5.926,-8.4648 5.926,-14.3711 0,-2.3672 -0.438,-4.6367 -1.309,-6.8164 -0.871,-2.1797 -1.789,-3.9648 -2.75,-5.3633 -0.965,-1.4023 -2.492,-2.9765 -4.578,-4.7148 -2.082,-1.7422 -3.641,-2.957 -4.664,-3.6406 -1.024,-0.6875 -2.723,-1.7735 -5.09,-3.2657 -2.359,-1.4921 -4.121,-2.664 -5.27,-3.5 -1.152,-0.8437 -2.535,-2.0546 -4.152,-3.6406 -1.621,-1.5898 -2.769,-3.3476 -3.453,-5.2734 -0.687,-1.9297 -1.031,-4.1406 -1.031,-6.625 h 32.855 v -9.336 h -42.187 c -0.375,2.5508 -0.559,4.9141 -0.559,7.0938 0,3.543 0.485,6.8125 1.445,9.8008 0.965,2.9844 2.379,5.6484 4.247,7.9804 1.867,2.3321 3.812,4.3516 5.835,6.0665 2.02,1.707 4.43,3.4687 7.235,5.2734 0.308,0.1875 1.101,0.668 2.379,1.4453 1.273,0.7773 2.191,1.3672 2.75,1.7734 0.562,0.4024 1.422,1.0079 2.57,1.8204 1.149,0.8085 2.008,1.5546 2.566,2.2382 0.559,0.6836 1.196,1.4961 1.915,2.4297 0.714,0.9336 1.214,1.9297 1.492,2.9844 0.281,1.0586 0.418,2.1484 0.418,3.2695 0,3.168 -1.102,5.7227 -3.313,7.6524 -2.207,1.9297 -4.965,2.8906 -8.258,2.8906 -2.679,0 -5.183,-0.3398 -7.515,-1.0234 -2.332,-0.6836 -4.121,-1.4024 -5.367,-2.1446 -1.243,-0.75 -3.02,-1.9023 -5.317,-3.457 z m 65.727,-31.832 v 3.9219 c 0,8.4609 0.562,14.9336 1.679,19.4141 2.739,11.1992 9.961,16.8007 21.657,16.8007 2.988,0 5.675,-0.3867 8.07,-1.1679 2.398,-0.7774 4.406,-1.8047 6.023,-3.0782 1.618,-1.2773 3,-2.9414 4.153,-4.9961 1.152,-2.0507 2.054,-4.121 2.707,-6.207 0.652,-2.082 1.168,-4.6172 1.539,-7.6055 0.375,-2.9843 0.605,-5.7226 0.699,-8.2109 0.094,-2.4922 0.141,-5.4492 0.141,-8.8711 0,-5.5351 -0.481,-10.4844 -1.446,-14.8359 -0.965,-4.3594 -2.769,-8.2461 -5.414,-11.668 -2.644,-3.4219 -6.051,-5.5391 -10.222,-6.35156 -1.368,-0.24609 -3.45,-0.37109 -6.25,-0.37109 -4.481,0 -8.309,0.85545 -11.485,2.57035 -3.168,1.707 -5.582,4.1523 -7.23,7.3242 -1.653,3.1758 -2.828,6.6406 -3.547,10.4101 -0.715,3.7618 -1.074,8.0704 -1.074,12.9219 z m 9.336,0 c 0,-14.4336 3.171,-22.3359 9.519,-23.707 0.625,-0.125 1.524,-0.1836 2.703,-0.1836 h 1.778 c 3.359,0 5.91,0.5742 7.652,1.7266 1.742,1.1484 3.109,3.0937 4.105,5.832 1.497,3.9805 2.239,9.4297 2.239,16.332 v 4.5781 c 0,2.6719 -0.047,4.9414 -0.137,6.8086 -0.094,1.8672 -0.309,4.0313 -0.652,6.4922 -0.34,2.4571 -0.84,4.4766 -1.496,6.0664 -0.653,1.586 -1.602,3.0157 -2.844,4.293 -1.242,1.2734 -2.738,2.0664 -4.481,2.3789 -0.562,0.125 -1.433,0.1836 -2.613,0.1836 h -1.773 -1.778 l -2.703,-0.1836 c -2.113,-0.375 -3.859,-1.3711 -5.226,-2.9844 -1.372,-1.6211 -2.348,-3.8008 -2.942,-6.539 -0.59,-2.7344 -0.961,-5.2539 -1.121,-7.5586 -0.152,-2.3008 -0.23,-5.1328 -0.23,-8.4922 z M 581.5,64.0391 603.156,82.6133 h 9.332 V 9.8125 h -9.332 v 60.4844 l -15.59,-13.3477 z m 64.422,-21.2813 v 3.9219 c 0,8.4609 0.562,14.9336 1.68,19.4141 2.738,11.1992 9.961,16.8007 21.66,16.8007 2.984,0 5.672,-0.3867 8.07,-1.1679 2.395,-0.7774 4.402,-1.8047 6.02,-3.0782 1.617,-1.2773 3.003,-2.9414 4.152,-4.9961 1.152,-2.0507 2.055,-4.121 2.707,-6.207 0.656,-2.082 1.168,-4.6172 1.539,-7.6055 0.375,-2.9843 0.605,-5.7226 0.699,-8.2109 0.094,-2.4922 0.145,-5.4492 0.145,-8.8711 0,-5.5351 -0.485,-10.4844 -1.449,-14.8359 -0.961,-4.3594 -2.77,-8.2461 -5.415,-11.668 -2.644,-3.4219 -6.05,-5.5391 -10.218,-6.35156 -1.367,-0.24609 -3.453,-0.37109 -6.25,-0.37109 -4.485,0 -8.313,0.85545 -11.485,2.57035 -3.172,1.707 -5.586,4.1523 -7.234,7.3242 -1.648,3.1758 -2.828,6.6406 -3.547,10.4101 -0.715,3.7618 -1.074,8.0704 -1.074,12.9219 z m 9.336,0 c 0,-14.4336 3.172,-22.3359 9.519,-23.707 0.625,-0.125 1.528,-0.1836 2.707,-0.1836 h 1.778 c 3.355,0 5.906,0.5742 7.648,1.7266 1.746,1.1484 3.113,3.0937 4.11,5.832 1.492,3.9805 2.238,9.4297 2.238,16.332 v 4.5781 c 0,2.6719 -0.047,4.9414 -0.137,6.8086 -0.094,1.8672 -0.312,4.0313 -0.656,6.4922 -0.34,2.4571 -0.84,4.4766 -1.492,6.0664 -0.657,1.586 -1.606,3.0157 -2.848,4.293 -1.242,1.2734 -2.738,2.0664 -4.48,2.3789 -0.563,0.125 -1.434,0.1836 -2.614,0.1836 h -1.769 -1.778 l -2.707,-0.1836 c -2.113,-0.375 -3.855,-1.3711 -5.222,-2.9844 -1.375,-1.6211 -2.352,-3.8008 -2.946,-6.539 -0.589,-2.7344 -0.961,-5.2539 -1.121,-7.5586 -0.152,-2.3008 -0.23,-5.1328 -0.23,-8.4922 z m 56.117,0 v 3.9219 c 0,8.4609 0.559,14.9336 1.676,19.4141 2.742,11.1992 9.961,16.8007 21.66,16.8007 2.984,0 5.672,-0.3867 8.07,-1.1679 2.395,-0.7774 4.403,-1.8047 6.02,-3.0782 1.617,-1.2773 3.004,-2.9414 4.152,-4.9961 1.152,-2.0507 2.055,-4.121 2.707,-6.207 0.656,-2.082 1.168,-4.6172 1.539,-7.6055 0.375,-2.9843 0.61,-5.7226 0.703,-8.2109 0.094,-2.4922 0.141,-5.4492 0.141,-8.8711 0,-5.5351 -0.484,-10.4844 -1.449,-14.8359 -0.961,-4.3594 -2.77,-8.2461 -5.414,-11.668 -2.645,-3.4219 -6.051,-5.5391 -10.219,-6.35156 -1.367,-0.24609 -3.453,-0.37109 -6.25,-0.37109 -4.484,0 -8.313,0.85545 -11.484,2.57035 -3.172,1.707 -5.586,4.1523 -7.235,7.3242 -1.648,3.1758 -2.828,6.6406 -3.547,10.4101 -0.711,3.7618 -1.07,8.0704 -1.07,12.9219 z m 9.336,0 c 0,-14.4336 3.168,-22.3359 9.516,-23.707 0.625,-0.125 1.527,-0.1836 2.707,-0.1836 h 1.777 c 3.355,0 5.906,0.5742 7.652,1.7266 1.742,1.1484 3.11,3.0937 4.106,5.832 1.496,3.9805 2.238,9.4297 2.238,16.332 v 4.5781 c 0,2.6719 -0.047,4.9414 -0.137,6.8086 -0.093,1.8672 -0.312,4.0313 -0.652,6.4922 -0.344,2.4571 -0.844,4.4766 -1.496,6.0664 -0.656,1.586 -1.602,3.0157 -2.848,4.293 -1.242,1.2734 -2.738,2.0664 -4.48,2.3789 -0.559,0.125 -1.43,0.1836 -2.61,0.1836 h -1.773 -1.777 l -2.707,-0.1836 c -2.114,-0.375 -3.856,-1.3711 -5.223,-2.9844 -1.371,-1.6211 -2.352,-3.8008 -2.945,-6.539 -0.59,-2.7344 -0.961,-5.2539 -1.118,-7.5586 -0.156,-2.3008 -0.23,-5.1328 -0.23,-8.4922 z m 56.113,0 v 3.9219 c 0,8.4609 0.559,14.9336 1.68,19.4141 2.738,11.1992 9.957,16.8007 21.656,16.8007 2.985,0 5.672,-0.3867 8.07,-1.1679 2.399,-0.7774 4.407,-1.8047 6.02,-3.0782 1.621,-1.2773 3.004,-2.9414 4.152,-4.9961 1.157,-2.0507 2.055,-4.121 2.711,-6.207 0.653,-2.082 1.164,-4.6172 1.535,-7.6055 0.379,-2.9843 0.61,-5.7226 0.704,-8.2109 0.093,-2.4922 0.14,-5.4492 0.14,-8.8711 0,-5.5351 -0.484,-10.4844 -1.449,-14.8359 -0.961,-4.3594 -2.77,-8.2461 -5.414,-11.668 -2.645,-3.4219 -6.047,-5.5391 -10.219,-6.35156 -1.367,-0.24609 -3.453,-0.37109 -6.25,-0.37109 -4.48,0 -8.308,0.85545 -11.484,2.57035 -3.172,1.707 -5.586,4.1523 -7.235,7.3242 -1.648,3.1758 -2.828,6.6406 -3.546,10.4101 -0.711,3.7618 -1.071,8.0704 -1.071,12.9219 z m 9.336,0 c 0,-14.4336 3.168,-22.3359 9.52,-23.707 0.621,-0.125 1.523,-0.1836 2.703,-0.1836 h 1.777 c 3.36,0 5.91,0.5742 7.653,1.7266 1.742,1.1484 3.109,3.0937 4.105,5.832 1.496,3.9805 2.238,9.4297 2.238,16.332 v 4.5781 c 0,2.6719 -0.047,4.9414 -0.136,6.8086 -0.094,1.8672 -0.313,4.0313 -0.653,6.4922 -0.344,2.4571 -0.844,4.4766 -1.496,6.0664 -0.652,1.586 -1.601,3.0157 -2.848,4.293 -1.242,1.2734 -2.738,2.0664 -4.48,2.3789 -0.559,0.125 -1.43,0.1836 -2.609,0.1836 h -1.774 -1.777 L 795.68,73.375 c -2.117,-0.375 -3.86,-1.3711 -5.227,-2.9844 -1.371,-1.6211 -2.351,-3.8008 -2.945,-6.539 -0.59,-2.7344 -0.961,-5.2539 -1.117,-7.5586 -0.157,-2.3008 -0.231,-5.1328 -0.231,-8.4922 z m 57.141,21.2813 21.656,18.5742 h 9.332 V 9.8125 h -9.332 v 60.4844 l -15.59,-13.3477 z m 64.422,-34.6289 c 0,7.7812 4.543,14.75 13.629,20.9101 -6.973,4.1055 -10.454,9.586 -10.454,16.4297 0,4.7227 2.051,8.5977 6.161,11.6172 4.105,3.0195 8.773,4.5273 14,4.5273 5.164,0 9.816,-1.5234 13.949,-4.5742 4.14,-3.0469 6.211,-6.9062 6.211,-11.5703 0,-6.8437 -3.485,-12.3242 -10.457,-16.4297 9.09,-6.1601 13.629,-13.1289 13.629,-20.9101 0,-5.8477 -2.192,-10.625 -6.578,-14.3243 -4.387,-3.7031 -9.973,-5.55465 -16.754,-5.55465 -6.786,0 -12.368,1.85155 -16.754,5.55465 -4.391,3.6993 -6.582,8.4766 -6.582,14.3243 z m 9.242,0 c 0,-3.2969 1.336,-5.8789 4.012,-7.7422 2.675,-1.8672 6.039,-2.8008 10.082,-2.8008 4.043,0 7.386,0.9336 10.031,2.8008 2.644,1.8633 3.965,4.4453 3.965,7.7422 0,5.7265 -4.664,11.0156 -13.996,15.8711 -9.399,-4.918 -14.094,-10.2032 -14.094,-15.8711 z M 920.23,66.75 c 0,-1.5586 0.297,-2.9453 0.887,-4.1562 0.59,-1.2149 1.528,-2.2696 2.801,-3.1719 1.277,-0.9063 2.367,-1.5899 3.266,-2.0547 0.902,-0.4649 2.191,-1.043 3.875,-1.7266 1.617,0.6836 2.894,1.2735 3.824,1.7735 0.937,0.4961 2.039,1.1953 3.316,2.1015 1.274,0.9024 2.207,1.9571 2.797,3.1719 0.59,1.2109 0.891,2.5664 0.891,4.0625 0,2.1719 -1.168,3.8555 -3.504,5.0352 -2.332,1.1836 -4.774,1.7734 -7.324,1.7734 -2.555,0 -4.993,-0.5898 -7.325,-1.7734 -2.339,-1.1797 -3.504,-2.8633 -3.504,-5.0352"
         style="fill:#000000;fill-opacity:1;fill-rule:evenodd;stroke:none"
         id="path16" /></g></g></svg>
